<svg width="44" height="44" viewBox="0 0 44 44" fill="none" xmlns="http://www.w3.org/2000/svg">
<mask id="mask0_225_1760" style="mask-type:luminance" maskUnits="userSpaceOnUse" x="0" y="0" width="44" height="44">
<path d="M44 22C44 9.84974 34.1503 0 22 0C9.84974 0 0 9.84974 0 22C0 34.1503 9.84974 44 22 44C34.1503 44 44 34.1503 44 22Z" fill="white"/>
</mask>
<g mask="url(#mask0_225_1760)">
<path d="M44 0H1.90735e-06V44H44V0Z" fill="#8CFF80"/>
<path d="M13.2344 10.9534C2.40848 16.4695 -1.89601 29.7174 3.62009 40.5434C9.1362 51.3693 22.3841 55.6738 33.21 50.1577C44.036 44.6416 48.3405 31.3937 42.8244 20.5678C37.3083 9.74182 24.0604 5.43733 13.2344 10.9534Z" fill="#B0C7F5"/>
<path d="M12.1666 27.1782C12.103 28.3921 12.685 29.59 13.7845 30.5084C14.884 31.4267 16.411 31.9903 18.0295 32.0751C19.648 32.1599 21.2256 31.7591 22.415 30.9607C23.6045 30.1623 24.3085 29.0318 24.3721 27.8179" fill="black"/>
<path d="M11.8122 22.2643C11.8476 21.5902 11.4664 21.0222 10.9608 20.9957C10.4552 20.9692 10.0167 21.4942 9.98141 22.1683C9.94608 22.8424 10.3273 23.4103 10.8329 23.4368C11.3384 23.4633 11.7769 22.9383 11.8122 22.2643Z" fill="black"/>
<path d="M26.4588 23.0321C26.4941 22.358 26.1129 21.79 25.6074 21.7636C25.1018 21.7371 24.6633 22.262 24.628 22.9361C24.5926 23.6102 24.9739 24.1781 25.4794 24.2046C25.985 24.2311 26.4235 23.7062 26.4588 23.0321Z" fill="black"/>
</g>
</svg>
